<svg xmlns="http://www.w3.org/2000/svg" width="138" height="116" viewBox="0 0 138 116">
  <g id="Group_185" data-name="Group 185" transform="translate(-166 -3101)">
    <path id="Path_49" data-name="Path 49" d="M39,0A39,39,0,1,1,0,39,39,39,0,0,1,39,0Z" transform="translate(166 3101)" fill="#f4dd4b" opacity="0.2"/>
    <g id="branding" transform="translate(211.022 3133.052)">
      <path id="Path_46" data-name="Path 46" d="M25.038,50.333H9.891A.891.891,0,0,1,9,49.442V29.84a.891.891,0,0,1,.891-.891H22.365V18.256H9.891A.891.891,0,0,1,9,17.365V4.891A.891.891,0,0,1,9.891,4H34.84a.891.891,0,0,1,.633.258L42.6,11.387a.891.891,0,0,1,.258.633V35.186a.891.891,0,0,1-.891.891H25.929V49.442A.891.891,0,0,1,25.038,50.333ZM10.782,48.551H24.147V35.186a.891.891,0,0,1,.891-.891H41.077V12.384l-6.6-6.6H10.782V16.474H23.256a.891.891,0,0,1,.891.891V29.84a.891.891,0,0,1-.891.891H10.782Z" transform="translate(-0.545)" fill="#f4dd4b"/>
      <path id="Path_47" data-name="Path 47" d="M53.006,54.442H24.493a.891.891,0,0,1-.891-.891V35.731a.891.891,0,0,1,.891-.891H53.006a.891.891,0,0,1,.891.891v17.82A.891.891,0,0,1,53.006,54.442ZM25.384,52.66H52.115V36.622H25.384ZM22.711,31.275H4.891A.891.891,0,0,1,4,30.384V17.91a.891.891,0,0,1,.891-.891h17.82a.891.891,0,0,1,.891.891V30.384A.891.891,0,0,1,22.711,31.275ZM5.782,29.493H21.82V18.8H5.782Zm43.589,4.455h0a.891.891,0,0,1-.7-.365l-2.6-3.564a.891.891,0,0,1-.187-.526V10.782A1.782,1.782,0,0,1,47.66,9h3.564a1.782,1.782,0,0,1,1.782,1.782V29.493a.891.891,0,0,1-.187.544L50.075,33.6A.891.891,0,0,1,49.371,33.948ZM47.66,29.2l1.729,2.37,1.835-2.379V10.782H47.66Zm4.455.294Z" transform="translate(0 -0.545)" fill="#f4dd4b"/>
      <path id="Path_48" data-name="Path 48" d="M51.66,10.237H48.1a.891.891,0,0,1-.891-.891V6.673a2.673,2.673,0,1,1,5.346,0V9.346A.891.891,0,0,1,51.66,10.237ZM48.987,8.455h1.782V6.673a.891.891,0,0,0-1.782,0ZM10.673,25.384a2.673,2.673,0,1,1,2.673-2.673,2.673,2.673,0,0,1-2.673,2.673Zm0-3.564a.891.891,0,1,0,.891.891A.891.891,0,0,0,10.673,21.82Zm8.91,2.673H16.019a.891.891,0,1,1,0-1.782h3.564a.891.891,0,0,1,0,1.782Zm0,2.673H16.019a.891.891,0,1,1,0-1.782h3.564a.891.891,0,0,1,0,1.782ZM16.91,14.692a3.564,3.564,0,1,1,3.564-3.564A3.564,3.564,0,0,1,16.91,14.692Zm0-5.346a1.782,1.782,0,1,0,1.782,1.782A1.782,1.782,0,0,0,16.91,9.346Zm14.256.891H23.147a.891.891,0,1,1,0-1.782h8.019a.891.891,0,1,1,0,1.782ZM27.6,13.8H23.147a.891.891,0,1,1,0-1.782H27.6a.891.891,0,1,1,0,1.782Zm14.256-.891H34.731a.891.891,0,0,1-.891-.891V4.891a.9.9,0,0,1,1.524-.633l7.128,7.128a.9.9,0,0,1-.633,1.524Zm-6.237-1.782h4.09l-4.09-4.09ZM39.186,43.2a.891.891,0,0,1-.4-.1L24.528,35.979a.891.891,0,0,1,.8-1.586l13.855,6.923,13.855-6.923a.891.891,0,1,1,.8,1.586L39.587,43.107A.891.891,0,0,1,39.186,43.2Zm-8.465,7.128a3.119,3.119,0,1,1,3.119-3.119,3.119,3.119,0,0,1-3.119,3.119Zm0-4.455a1.337,1.337,0,1,0,1.337,1.337A1.337,1.337,0,0,0,30.721,45.878Zm13.811.891H36.513a.891.891,0,1,1,0-1.782h8.019a.891.891,0,1,1,0,1.782Zm-3.564,3.564H36.513a.891.891,0,1,1,0-1.782h4.455a.891.891,0,1,1,0,1.782Z" transform="translate(-0.436 0)" fill="#f4dd4b"/>
    </g>
    <g id="Polygon_32" data-name="Polygon 32" transform="translate(176 3107)" fill="none">
      <path d="M84.5,0a20,20,0,0,1,17.287,9.942l20.364,35a20,20,0,0,1,0,20.116l-20.364,35A20,20,0,0,1,84.5,110h-41a20,20,0,0,1-17.287-9.942l-20.364-35a20,20,0,0,1,0-20.116l20.364-35A20,20,0,0,1,43.5,0Z" stroke="none"/>
      <path d="M 43.50245666503906 2.000007629394531 C 40.35771179199219 2.000007629394531 37.25458526611328 2.828697204589844 34.52854919433594 4.396514892578125 C 31.802490234375 5.964309692382812 29.52565765380859 8.229751586914062 27.94418334960938 10.94789123535156 L 7.580543518066406 45.94791412353516 C 5.983161926269531 48.69343948364258 5.138816833496094 51.82358551025391 5.138816833496094 55.00000381469727 C 5.138816833496094 58.1764030456543 5.983161926269531 61.30656814575195 7.580543518066406 64.05209350585938 L 27.94418334960938 99.05207824707031 C 29.52565765380859 101.7702178955078 31.802490234375 104.0356750488281 34.52852630615234 105.6034927368164 C 37.25458526611328 107.1712951660156 40.35771179199219 108 43.50245666503906 108 L 84.49754333496094 108 C 87.64228820800781 108 90.74542236328125 107.1712951660156 93.47147369384766 105.6034927368164 C 96.197509765625 104.0356750488281 98.47434997558594 101.7702178955078 100.0558166503906 99.05207824707031 L 120.4194564819336 64.05209350585938 C 122.0168380737305 61.30656814575195 122.8611831665039 58.1764030456543 122.8611831665039 55.00000381469727 C 122.8611831665039 51.82358551025391 122.0168380737305 48.69343948364258 120.4194564819336 45.94791412353516 L 100.0558166503906 10.94791412353516 C 98.47434997558594 8.229766845703125 96.197509765625 5.964332580566406 93.47147369384766 4.396514892578125 C 90.74542236328125 2.828712463378906 87.64228820800781 2.000007629394531 84.49754333496094 2.000007629394531 L 43.50245666503906 2.000007629394531 M 43.50245666503906 7.62939453125e-06 L 84.49754333496094 7.62939453125e-06 C 91.61896514892578 7.62939453125e-06 98.20320129394531 3.786750793457031 101.7845077514648 9.942131042480469 L 122.1481475830078 44.94213104248047 C 125.7655258178711 51.15949630737305 125.7655258178711 58.84049606323242 122.1481475830078 65.05787658691406 L 101.7845077514648 100.057861328125 C 98.20320129394531 106.2132568359375 91.61896514892578 110 84.49754333496094 110 L 43.50245666503906 110 C 36.38101959228516 110 29.79679870605469 106.2132568359375 26.21549224853516 100.057861328125 L 5.851852416992188 65.05787658691406 C 2.234474182128906 58.84049606323242 2.234474182128906 51.15949630737305 5.851852416992188 44.94213104248047 L 26.21549224853516 9.942115783691406 C 29.79682159423828 3.786727905273438 36.38103485107422 7.62939453125e-06 43.50245666503906 7.62939453125e-06 Z" stroke="none" fill="#f4dd4b"/>
    </g>
  </g>
</svg>
