<svg xmlns="http://www.w3.org/2000/svg" width="48" height="41" viewBox="0 0 48 41">
  <g id="Instagram" transform="translate(-1746 -386)">
    <g id="Polygon_2" data-name="Polygon 2" transform="translate(1746 386)" fill="none">
      <path d="M30.266,0A10,10,0,0,1,38.9,4.948l6.146,10.5a10,10,0,0,1,0,10.1L38.9,36.052A10,10,0,0,1,30.266,41H17.734A10,10,0,0,1,9.1,36.052l-6.146-10.5a10,10,0,0,1,0-10.1L9.1,4.948A10,10,0,0,1,17.734,0Z" stroke="none"/>
      <path d="M 17.73362922668457 1 C 14.5506591796875 1 11.57447052001953 2.706439971923828 9.966499328613281 5.453388214111328 L 3.820148468017578 15.95339012145996 C 2.178531646728516 18.75783920288086 2.178531646728516 22.24216079711914 3.820148468017578 25.04660987854004 L 9.96649169921875 35.54660797119141 C 11.57447052001953 38.29356002807617 14.5506591796875 40 17.73362922668457 40 L 30.26635932922363 40 C 33.4493408203125 40 36.42552947998047 38.29356002807617 38.03350067138672 35.54660797119141 L 44.17984008789062 25.04660987854004 C 45.82146835327148 22.24214935302734 45.82146835327148 18.75783920288086 44.17984008789062 15.95339012145996 L 38.03348922729492 5.453388214111328 C 36.42552947998047 2.706439971923828 33.4493408203125 1 30.26637077331543 1 L 17.73362922668457 1 M 17.73362922668457 0 L 30.26637077331543 0 C 33.81763076782227 0 37.10248947143555 1.883411407470703 38.89651107788086 4.948211669921875 L 45.04285049438477 15.44820976257324 C 46.86933135986328 18.56842994689941 46.86933135986328 22.43156051635742 45.04285049438477 25.55179023742676 L 38.89651107788086 36.05178833007812 C 37.10248947143555 39.11658096313477 33.81763076782227 41 30.26635932922363 41 L 17.73362922668457 41 C 14.18236923217773 41 10.89751052856445 39.11658096313477 9.103481292724609 36.05178833007812 L 2.957141876220703 25.55179023742676 C 1.130668640136719 22.43156051635742 1.130668640136719 18.56842994689941 2.957141876220703 15.44820976257324 L 9.103488922119141 4.948211669921875 C 10.89751052856445 1.883411407470703 14.18236923217773 0 17.73362922668457 0 Z" stroke="none" fill="#fff"/>
    </g>
    <g id="Group_15" data-name="Group 15" transform="translate(-7508 -64)">
      <rect id="Rectangle_159" data-name="Rectangle 159" width="28" height="28" transform="translate(9264 457)" fill="none"/>
      <g id="instagram_1_" data-name="instagram (1)" transform="translate(9269.754 462.754)">
        <path id="Path_22" data-name="Path 22" d="M12.261,16.538H4.777A4.277,4.277,0,0,1,.5,12.261V4.777A4.277,4.277,0,0,1,4.777.5h7.484a4.277,4.277,0,0,1,4.277,4.277v7.484A4.277,4.277,0,0,1,12.261,16.538Z" transform="translate(-0.5 -0.5)" fill="none" stroke="#fff" stroke-miterlimit="10" stroke-width="1"/>
        <circle id="Ellipse_3" data-name="Ellipse 3" cx="3.452" cy="3.452" r="3.452" transform="translate(4.531 4.603)" fill="none" stroke="#fff" stroke-miterlimit="10" stroke-width="1"/>
        <circle id="Ellipse_4" data-name="Ellipse 4" cx="0.535" cy="0.535" r="0.535" transform="translate(12.296 2.673)" fill="none" stroke="#fff" stroke-miterlimit="10" stroke-width="1"/>
      </g>
    </g>
  </g>
</svg>
