<svg xmlns="http://www.w3.org/2000/svg" width="48" height="41" viewBox="0 0 48 41">
  <g id="Linkedin" transform="translate(-1746 -447)">
    <g id="Polygon_3" data-name="Polygon 3" transform="translate(1746 447)" fill="none">
      <path d="M30.266,0A10,10,0,0,1,38.9,4.948l6.146,10.5a10,10,0,0,1,0,10.1L38.9,36.052A10,10,0,0,1,30.266,41H17.734A10,10,0,0,1,9.1,36.052l-6.146-10.5a10,10,0,0,1,0-10.1L9.1,4.948A10,10,0,0,1,17.734,0Z" stroke="none"/>
      <path d="M 17.73362922668457 1 C 14.5506591796875 1 11.57447052001953 2.706439971923828 9.966499328613281 5.453388214111328 L 3.820148468017578 15.95339012145996 C 2.178531646728516 18.75783920288086 2.178531646728516 22.24216079711914 3.820148468017578 25.04660987854004 L 9.96649169921875 35.54660797119141 C 11.57447052001953 38.29356002807617 14.5506591796875 40 17.73362922668457 40 L 30.26635932922363 40 C 33.4493408203125 40 36.42552947998047 38.29356002807617 38.03350067138672 35.54660797119141 L 44.17984008789062 25.04660987854004 C 45.82146835327148 22.24214935302734 45.82146835327148 18.75783920288086 44.17984008789062 15.95339012145996 L 38.03348922729492 5.453388214111328 C 36.42552947998047 2.706439971923828 33.4493408203125 1 30.26637077331543 1 L 17.73362922668457 1 M 17.73362922668457 0 L 30.26637077331543 0 C 33.81763076782227 0 37.10248947143555 1.883411407470703 38.89651107788086 4.948211669921875 L 45.04285049438477 15.44820976257324 C 46.86933135986328 18.56842994689941 46.86933135986328 22.43156051635742 45.04285049438477 25.55179023742676 L 38.89651107788086 36.05178833007812 C 37.10248947143555 39.11658096313477 33.81763076782227 41 30.26635932922363 41 L 17.73362922668457 41 C 14.18236923217773 41 10.89751052856445 39.11658096313477 9.103481292724609 36.05178833007812 L 2.957141876220703 25.55179023742676 C 1.130668640136719 22.43156051635742 1.130668640136719 18.56842994689941 2.957141876220703 15.44820976257324 L 9.103488922119141 4.948211669921875 C 10.89751052856445 1.883411407470703 14.18236923217773 0 17.73362922668457 0 Z" stroke="none" fill="#fff"/>
    </g>
    <g id="Group_16" data-name="Group 16" transform="translate(-7478 -3)">
      <rect id="Rectangle_160" data-name="Rectangle 160" width="28" height="28" transform="translate(9234 457)" fill="none"/>
      <path id="linkedin_1_" data-name="linkedin (1)" d="M6.521,7.6h-3.2a.4.4,0,0,0-.4.4h0v9.607a.4.4,0,0,0,.4.4h3.2a.4.4,0,0,0,.4-.4h0V8A.4.4,0,0,0,6.521,7.6Zm-.4,9.607h-2.4V8.4h2.4ZM14.927,7.6a3.946,3.946,0,0,0-2.4.815V8a.4.4,0,0,0-.4-.4h-3.2a.4.4,0,0,0-.4.4h0v9.607a.4.4,0,0,0,.4.4h3.2a.4.4,0,0,0,.4-.4h0v-4.4a1.2,1.2,0,0,1,2.4,0v4.4a.4.4,0,0,0,.4.4h3.2a.4.4,0,0,0,.4-.4h0v-6A4.008,4.008,0,0,0,14.927,7.6Zm3.2,9.607h-2.4v-4a2,2,0,1,0-4,0v4h-2.4V8.4h2.4v.963a.4.4,0,0,0,.268.378.4.4,0,0,0,.445-.127,3.189,3.189,0,0,1,5.692,1.989ZM5.214,2a2.186,2.186,0,0,0-.283,0A2.193,2.193,0,0,0,2.594,4.037q0,.073-.005.146a2.169,2.169,0,0,0,2.15,2.188q.073,0,.147,0h.023A2.189,2.189,0,1,0,5.214,2ZM5.186,5.569a1.39,1.39,0,0,1-.278,0H4.886A1.39,1.39,0,1,1,4.931,2.8a1.391,1.391,0,1,1,.255,2.77Z" transform="translate(9237.184 460.779)" fill="#fff"/>
    </g>
  </g>
</svg>
